<svg xmlns="http://www.w3.org/2000/svg" viewBox="0 0 1296 1080" width="1296" height="1080" role="img" aria-label="Máscara branca 20% mais larga para CSS">
  <title>Máscara branca 20% mais larga</title>
  <desc>Asset recortado, 20% mais largo horizontalmente. Fundo transparente, forma branca sólida, canvas 1296x1080.</desc>
  <path d="M 648 80 C 734.4 80 807.6 110 861.6 160 C 912 134 988.8 142 1039.2 184 C 1089.6 226 1099.2 291 1065.6 340 C 1136.4 364 1178.4 421 1178.4 540 C 1178.4 659 1136.4 716 1065.6 740 C 1099.2 789 1089.6 854 1039.2 896 C 988.8 938 912 946 861.6 920 C 807.6 970 734.4 1000 648 1000 C 561.6 1000 488.4 970 434.4 920 C 384 946 307.2 938 256.8 896 C 206.4 854 196.8 789 230.4 740 C 159.6 716 117.6 659 117.6 540 C 117.6 421 159.6 364 230.4 340 C 196.8 291 206.4 226 256.8 184 C 307.2 142 384 134 434.4 160 C 488.4 110 561.6 80 648 80Z" fill="#ffffff"/>
</svg>
