<?xml version="1.0" encoding="UTF-8"?>
<svg xmlns="http://www.w3.org/2000/svg" viewBox="0 0 2160 1080" width="2160" height="1080">
  <path d="M 2073.60 540.00 L 2073.54 596.85 L 2073.35 620.39 L 2073.05 638.45 L 2072.62 653.66 L 2072.07 667.06 L 2071.39 679.15 L 2070.60 690.26 L 2069.67 700.59 L 2068.63 710.27 L 2067.46 719.41 L 2066.17 728.08 L 2064.76 736.35 L 2063.22 744.26 L 2061.56 751.86 L 2059.78 759.16 L 2057.87 766.20 L 2055.83 773.01 L 2053.67 779.59 L 2051.39 785.97 L 2048.98 792.15 L 2046.44 798.16 L 2043.78 804.00 L 2040.99 809.68 L 2038.08 815.21 L 2035.03 820.60 L 2031.86 825.86 L 2028.56 830.98 L 2025.14 835.98 L 2021.58 840.86 L 2017.89 845.63 L 2014.07 850.29 L 2010.12 854.84 L 2006.04 859.28 L 2001.82 863.63 L 1997.48 867.88 L 1992.99 872.04 L 1988.37 876.10 L 1983.62 880.07 L 1978.73 883.96 L 1973.70 887.76 L 1968.53 891.48 L 1963.22 895.12 L 1957.77 898.67 L 1952.17 902.15 L 1946.43 905.55 L 1940.55 908.87 L 1934.51 912.12 L 1928.33 915.30 L 1922.00 918.40 L 1915.51 921.43 L 1908.87 924.39 L 1902.08 927.28 L 1895.12 930.10 L 1888.01 932.86 L 1880.73 935.54 L 1873.28 938.17 L 1865.66 940.72 L 1857.87 943.21 L 1849.91 945.63 L 1841.76 947.99 L 1833.44 950.29 L 1824.92 952.52 L 1816.22 954.69 L 1807.32 956.80 L 1798.21 958.85 L 1788.91 960.83 L 1779.38 962.76 L 1769.64 964.62 L 1759.68 966.42 L 1749.48 968.17 L 1739.03 969.85 L 1728.34 971.48 L 1717.39 973.04 L 1706.16 974.55 L 1694.65 975.99 L 1682.85 977.38 L 1670.73 978.71 L 1658.29 979.99 L 1645.49 981.20 L 1632.34 982.36 L 1618.78 983.46 L 1604.82 984.50 L 1590.40 985.49 L 1575.50 986.42 L 1560.07 987.29 L 1544.07 988.10 L 1527.44 988.86 L 1510.11 989.56 L 1491.99 990.21 L 1472.99 990.80 L 1452.97 991.33 L 1431.76 991.81 L 1409.14 992.23 L 1384.81 992.59 L 1358.31 992.90 L 1328.98 993.15 L 1295.65 993.35 L 1256.10 993.49 L 1204.53 993.57 L 1080.00 993.60 L 955.47 993.57 L 903.90 993.49 L 864.35 993.35 L 831.02 993.15 L 801.69 992.90 L 775.19 992.59 L 750.86 992.23 L 728.24 991.81 L 707.03 991.33 L 687.01 990.80 L 668.01 990.21 L 649.89 989.56 L 632.56 988.86 L 615.93 988.10 L 599.93 987.29 L 584.50 986.42 L 569.60 985.49 L 555.18 984.50 L 541.22 983.46 L 527.66 982.36 L 514.51 981.20 L 501.71 979.99 L 489.27 978.71 L 477.15 977.38 L 465.35 975.99 L 453.84 974.55 L 442.61 973.04 L 431.66 971.48 L 420.97 969.85 L 410.52 968.17 L 400.32 966.42 L 390.36 964.62 L 380.62 962.76 L 371.09 960.83 L 361.79 958.85 L 352.68 956.80 L 343.78 954.69 L 335.08 952.52 L 326.56 950.29 L 318.24 947.99 L 310.09 945.63 L 302.13 943.21 L 294.34 940.72 L 286.72 938.17 L 279.27 935.54 L 271.99 932.86 L 264.88 930.10 L 257.92 927.28 L 251.13 924.39 L 244.49 921.43 L 238.00 918.40 L 231.67 915.30 L 225.49 912.12 L 219.45 908.87 L 213.57 905.55 L 207.83 902.15 L 202.23 898.67 L 196.78 895.12 L 191.47 891.48 L 186.30 887.76 L 181.27 883.96 L 176.38 880.07 L 171.63 876.10 L 167.01 872.04 L 162.52 867.88 L 158.18 863.63 L 153.96 859.28 L 149.88 854.84 L 145.93 850.29 L 142.11 845.63 L 138.42 840.86 L 134.86 835.98 L 131.44 830.98 L 128.14 825.86 L 124.97 820.60 L 121.92 815.21 L 119.01 809.68 L 116.22 804.00 L 113.56 798.16 L 111.02 792.15 L 108.61 785.97 L 106.33 779.59 L 104.17 773.01 L 102.13 766.20 L 100.22 759.16 L 98.44 751.86 L 96.78 744.26 L 95.24 736.35 L 93.83 728.08 L 92.54 719.41 L 91.37 710.27 L 90.33 700.59 L 89.40 690.26 L 88.61 679.15 L 87.93 667.06 L 87.38 653.66 L 86.95 638.45 L 86.65 620.39 L 86.46 596.85 L 86.40 540.00 L 86.46 483.15 L 86.65 459.61 L 86.95 441.55 L 87.38 426.34 L 87.93 412.94 L 88.61 400.85 L 89.40 389.74 L 90.33 379.41 L 91.37 369.73 L 92.54 360.59 L 93.83 351.92 L 95.24 343.65 L 96.78 335.74 L 98.44 328.14 L 100.22 320.84 L 102.13 313.80 L 104.17 306.99 L 106.33 300.41 L 108.61 294.03 L 111.02 287.85 L 113.56 281.84 L 116.22 276.00 L 119.01 270.32 L 121.92 264.79 L 124.97 259.40 L 128.14 254.14 L 131.44 249.02 L 134.86 244.02 L 138.42 239.14 L 142.11 234.37 L 145.93 229.71 L 149.88 225.16 L 153.96 220.72 L 158.18 216.37 L 162.52 212.12 L 167.01 207.96 L 171.63 203.90 L 176.38 199.93 L 181.27 196.04 L 186.30 192.24 L 191.47 188.52 L 196.78 184.88 L 202.23 181.33 L 207.83 177.85 L 213.57 174.45 L 219.45 171.13 L 225.49 167.88 L 231.67 164.70 L 238.00 161.60 L 244.49 158.57 L 251.13 155.61 L 257.92 152.72 L 264.88 149.90 L 271.99 147.14 L 279.27 144.46 L 286.72 141.83 L 294.34 139.28 L 302.13 136.79 L 310.09 134.37 L 318.24 132.01 L 326.56 129.71 L 335.08 127.48 L 343.78 125.31 L 352.68 123.20 L 361.79 121.15 L 371.09 119.17 L 380.62 117.24 L 390.36 115.38 L 400.32 113.58 L 410.52 111.83 L 420.97 110.15 L 431.66 108.52 L 442.61 106.96 L 453.84 105.45 L 465.35 104.01 L 477.15 102.62 L 489.27 101.29 L 501.71 100.01 L 514.51 98.80 L 527.66 97.64 L 541.22 96.54 L 555.18 95.50 L 569.60 94.51 L 584.50 93.58 L 599.93 92.71 L 615.93 91.90 L 632.56 91.14 L 649.89 90.44 L 668.01 89.79 L 687.01 89.20 L 707.03 88.67 L 728.24 88.19 L 750.86 87.77 L 775.19 87.41 L 801.69 87.10 L 831.02 86.85 L 864.35 86.65 L 903.90 86.51 L 955.47 86.43 L 1080.00 86.40 L 1204.53 86.43 L 1256.10 86.51 L 1295.65 86.65 L 1328.98 86.85 L 1358.31 87.10 L 1384.81 87.41 L 1409.14 87.77 L 1431.76 88.19 L 1452.97 88.67 L 1472.99 89.20 L 1491.99 89.79 L 1510.11 90.44 L 1527.44 91.14 L 1544.07 91.90 L 1560.07 92.71 L 1575.50 93.58 L 1590.40 94.51 L 1604.82 95.50 L 1618.78 96.54 L 1632.34 97.64 L 1645.49 98.80 L 1658.29 100.01 L 1670.73 101.29 L 1682.85 102.62 L 1694.65 104.01 L 1706.16 105.45 L 1717.39 106.96 L 1728.34 108.52 L 1739.03 110.15 L 1749.48 111.83 L 1759.68 113.58 L 1769.64 115.38 L 1779.38 117.24 L 1788.91 119.17 L 1798.21 121.15 L 1807.32 123.20 L 1816.22 125.31 L 1824.92 127.48 L 1833.44 129.71 L 1841.76 132.01 L 1849.91 134.37 L 1857.87 136.79 L 1865.66 139.28 L 1873.28 141.83 L 1880.73 144.46 L 1888.01 147.14 L 1895.12 149.90 L 1902.08 152.72 L 1908.87 155.61 L 1915.51 158.57 L 1922.00 161.60 L 1928.33 164.70 L 1934.51 167.88 L 1940.55 171.13 L 1946.43 174.45 L 1952.17 177.85 L 1957.77 181.33 L 1963.22 184.88 L 1968.53 188.52 L 1973.70 192.24 L 1978.73 196.04 L 1983.62 199.93 L 1988.37 203.90 L 1992.99 207.96 L 1997.48 212.12 L 2001.82 216.37 L 2006.04 220.72 L 2010.12 225.16 L 2014.07 229.71 L 2017.89 234.37 L 2021.58 239.14 L 2025.14 244.02 L 2028.56 249.02 L 2031.86 254.14 L 2035.03 259.40 L 2038.08 264.79 L 2040.99 270.32 L 2043.78 276.00 L 2046.44 281.84 L 2048.98 287.85 L 2051.39 294.03 L 2053.67 300.41 L 2055.83 306.99 L 2057.87 313.80 L 2059.78 320.84 L 2061.56 328.14 L 2063.22 335.74 L 2064.76 343.65 L 2066.17 351.92 L 2067.46 360.59 L 2068.63 369.73 L 2069.67 379.41 L 2070.60 389.74 L 2071.39 400.85 L 2072.07 412.94 L 2072.62 426.34 L 2073.05 441.55 L 2073.35 459.61 L 2073.54 483.15 Z" fill="#FFFFFF"/>
</svg>