<?xml version="1.0" encoding="UTF-8"?>
<svg xmlns="http://www.w3.org/2000/svg" viewBox="0 0 2160 1080" width="2160" height="1080">
  <defs>
    <linearGradient id="grad1" x1="0%" y1="0%" x2="100%" y2="0%">
      <stop offset="0%" stop-color="#7B2CBF"/>
      <stop offset="50%" stop-color="#A9EAD2"/>
      <stop offset="100%" stop-color="#4A148C"/>
    </linearGradient>
    <linearGradient id="grad2" x1="0%" y1="0%" x2="100%" y2="100%">
      <stop offset="0%" stop-color="#7B2CBF"/>
      <stop offset="50%" stop-color="#A9EAD2"/>
      <stop offset="100%" stop-color="#4A148C"/>
    </linearGradient>
  </defs>

  <!-- Outer scalloped border -->
  <path d="M 2088.60 540.00 L 2091.56 587.98 L 2094.27 607.93 L 2096.56 623.31 L 2098.28 636.32 L 2099.31 647.80 L 2099.56 658.17 L 2099.00 667.68 L 2097.65 676.46 L 2095.56 684.62 L 2092.85 692.24 L 2089.64 699.37 L 2086.11 706.08 L 2082.43 712.43 L 2078.81 718.46 L 2075.41 724.24 L 2072.40 729.82 L 2069.91 735.27 L 2068.05 740.64 L 2066.86 745.97 L 2066.36 751.30 L 2066.49 756.65 L 2067.19 762.05 L 2068.32 767.48 L 2069.74 772.94 L 2071.27 778.40 L 2072.72 783.81 L 2073.92 789.13 L 2074.71 794.30 L 2074.92 799.28 L 2074.46 804.02 L 2073.26 808.47 L 2071.28 812.60 L 2068.55 816.41 L 2065.13 819.88 L 2061.11 823.05 L 2056.65 825.94 L 2051.89 828.61 L 2047.01 831.12 L 2042.18 833.56 L 2037.57 835.99 L 2033.33 838.49 L 2029.58 841.15 L 2026.40 844.01 L 2023.83 847.14 L 2021.88 850.56 L 2020.50 854.26 L 2019.61 858.24 L 2019.10 862.46 L 2018.82 866.86 L 2018.61 871.35 L 2018.31 875.85 L 2017.76 880.27 L 2016.81 884.49 L 2015.33 888.45 L 2013.24 892.04 L 2010.47 895.22 L 2007.01 897.95 L 2002.88 900.20 L 1998.15 902.01 L 1992.90 903.41 L 1987.25 904.47 L 1981.36 905.27 L 1975.36 905.94 L 1969.42 906.57 L 1963.66 907.30 L 1958.21 908.23 L 1953.18 909.47 L 1948.61 911.09 L 1944.55 913.15 L 1940.99 915.68 L 1937.88 918.67 L 1935.15 922.08 L 1932.70 925.85 L 1930.40 929.88 L 1928.13 934.04 L 1925.74 938.22 L 1923.11 942.28 L 1920.11 946.08 L 1916.66 949.50 L 1912.68 952.44 L 1908.12 954.83 L 1903.00 956.63 L 1897.32 957.83 L 1891.15 958.46 L 1884.56 958.58 L 1877.65 958.30 L 1870.54 957.73 L 1863.34 957.02 L 1856.16 956.32 L 1849.12 955.78 L 1842.29 955.54 L 1835.76 955.72 L 1829.54 956.41 L 1823.67 957.69 L 1818.13 959.57 L 1812.87 962.03 L 1807.83 965.02 L 1802.94 968.44 L 1798.09 972.18 L 1793.19 976.08 L 1788.14 979.99 L 1782.84 983.73 L 1777.22 987.15 L 1771.21 990.11 L 1764.76 992.50 L 1757.87 994.22 L 1750.52 995.24 L 1742.75 995.57 L 1734.60 995.24 L 1726.11 994.33 L 1717.37 992.97 L 1708.44 991.31 L 1699.41 989.50 L 1690.32 987.74 L 1681.26 986.19 L 1672.25 985.00 L 1663.34 984.32 L 1654.52 984.25 L 1645.80 984.85 L 1637.15 986.13 L 1628.52 988.08 L 1619.87 990.63 L 1611.13 993.65 L 1602.23 997.01 L 1593.12 1000.55 L 1583.72 1004.07 L 1573.98 1007.40 L 1563.85 1010.37 L 1553.28 1012.81 L 1542.27 1014.61 L 1530.78 1015.69 L 1518.81 1016.01 L 1506.36 1015.57 L 1493.43 1014.42 L 1480.02 1012.67 L 1466.14 1010.45 L 1451.77 1007.92 L 1436.88 1005.26 L 1421.43 1002.66 L 1405.35 1000.30 L 1388.54 998.35 L 1370.85 996.96 L 1352.09 996.21 L 1331.98 996.18 L 1310.14 996.88 L 1285.97 998.27 L 1258.50 1000.27 L 1225.84 1002.77 L 1183.18 1005.60 L 1080.00 1008.60 L 976.76 1011.57 L 933.92 1014.33 L 900.99 1016.69 L 873.18 1018.52 L 848.66 1019.68 L 826.51 1020.09 L 806.18 1019.73 L 787.33 1018.60 L 769.72 1016.76 L 753.17 1014.33 L 737.55 1011.43 L 722.74 1008.24 L 708.64 1004.94 L 695.15 1001.71 L 682.18 998.74 L 669.66 996.19 L 657.49 994.20 L 645.61 992.85 L 633.96 992.21 L 622.48 992.29 L 611.14 993.03 L 599.91 994.37 L 588.78 996.17 L 577.77 998.29 L 566.88 1000.55 L 556.16 1002.76 L 545.65 1004.75 L 535.39 1006.35 L 525.42 1007.42 L 515.80 1007.84 L 506.56 1007.55 L 497.72 1006.51 L 489.30 1004.75 L 481.30 1002.33 L 473.69 999.36 L 466.42 995.95 L 459.46 992.29 L 452.72 988.53 L 446.14 984.86 L 439.63 981.44 L 433.10 978.42 L 426.49 975.92 L 419.74 974.02 L 412.78 972.77 L 405.60 972.16 L 398.18 972.15 L 390.55 972.67 L 382.73 973.60 L 374.79 974.79 L 366.81 976.08 L 358.87 977.32 L 351.07 978.33 L 343.51 978.98 L 336.27 979.14 L 329.44 978.71 L 323.07 977.64 L 317.20 975.91 L 311.85 973.55 L 306.99 970.61 L 302.59 967.19 L 298.57 963.41 L 294.84 959.42 L 291.31 955.35 L 287.84 951.37 L 284.32 947.62 L 280.64 944.21 L 276.70 941.24 L 272.41 938.78 L 267.72 936.87 L 262.60 935.48 L 257.06 934.58 L 251.13 934.10 L 244.90 933.93 L 238.44 933.96 L 231.87 934.04 L 225.33 934.05 L 218.96 933.85 L 212.87 933.33 L 207.20 932.39 L 202.05 930.95 L 197.48 928.99 L 193.54 926.49 L 190.24 923.48 L 187.54 920.02 L 185.38 916.18 L 183.66 912.06 L 182.26 907.78 L 181.04 903.46 L 179.84 899.20 L 178.52 895.12 L 176.93 891.30 L 174.95 887.81 L 172.49 884.69 L 169.48 881.97 L 165.91 879.61 L 161.78 877.59 L 157.16 875.84 L 152.13 874.28 L 146.83 872.81 L 141.39 871.35 L 135.98 869.79 L 130.77 868.03 L 125.91 866.01 L 121.54 863.65 L 117.78 860.92 L 114.71 857.79 L 112.38 854.28 L 110.77 850.39 L 109.85 846.19 L 109.54 841.72 L 109.71 837.06 L 110.22 832.29 L 110.90 827.47 L 111.57 822.69 L 112.06 817.99 L 112.21 813.44 L 111.88 809.05 L 110.98 804.85 L 109.44 800.83 L 107.25 796.96 L 104.42 793.22 L 101.02 789.55 L 97.18 785.90 L 93.03 782.20 L 88.73 778.40 L 84.48 774.43 L 80.45 770.24 L 76.82 765.80 L 73.73 761.07 L 71.32 756.04 L 69.66 750.70 L 68.79 745.05 L 68.72 739.12 L 69.37 732.91 L 70.66 726.44 L 72.45 719.75 L 74.59 712.83 L 76.88 705.71 L 79.14 698.36 L 81.18 690.77 L 82.85 682.88 L 83.99 674.64 L 84.51 665.95 L 84.35 656.67 L 83.49 646.60 L 81.97 635.47 L 79.86 622.79 L 77.29 607.69 L 74.41 587.92 L 71.40 540.00 L 68.44 492.02 L 65.73 472.07 L 63.44 456.69 L 61.72 443.68 L 60.69 432.20 L 60.44 421.83 L 61.00 412.32 L 62.35 403.54 L 64.44 395.38 L 67.15 387.76 L 70.36 380.63 L 73.89 373.92 L 77.57 367.57 L 81.19 361.54 L 84.59 355.76 L 87.60 350.18 L 90.09 344.73 L 91.95 339.36 L 93.14 334.03 L 93.64 328.70 L 93.51 323.35 L 92.81 317.95 L 91.68 312.52 L 90.26 307.06 L 88.73 301.60 L 87.28 296.19 L 86.08 290.87 L 85.29 285.70 L 85.08 280.72 L 85.54 275.98 L 86.74 271.53 L 88.72 267.40 L 91.45 263.59 L 94.87 260.12 L 98.89 256.95 L 103.35 254.06 L 108.11 251.39 L 112.99 248.88 L 117.82 246.44 L 122.43 244.01 L 126.67 241.51 L 130.42 238.85 L 133.60 235.99 L 136.17 232.86 L 138.12 229.44 L 139.50 225.74 L 140.39 221.76 L 140.90 217.54 L 141.18 213.14 L 141.39 208.65 L 141.69 204.15 L 142.24 199.73 L 143.19 195.51 L 144.67 191.55 L 146.76 187.96 L 149.53 184.78 L 152.99 182.05 L 157.12 179.80 L 161.85 177.99 L 167.10 176.59 L 172.75 175.53 L 178.64 174.73 L 184.64 174.06 L 190.58 173.43 L 196.34 172.70 L 201.79 171.77 L 206.82 170.53 L 211.39 168.91 L 215.45 166.85 L 219.01 164.32 L 222.12 161.33 L 224.85 157.92 L 227.30 154.15 L 229.60 150.12 L 231.87 145.96 L 234.26 141.78 L 236.89 137.72 L 239.89 133.92 L 243.34 130.50 L 247.32 127.56 L 251.88 125.17 L 257.00 123.37 L 262.68 122.17 L 268.85 121.54 L 275.44 121.42 L 282.35 121.70 L 289.46 122.27 L 296.66 122.98 L 303.84 123.68 L 310.88 124.22 L 317.71 124.46 L 324.24 124.28 L 330.46 123.59 L 336.33 122.31 L 341.87 120.43 L 347.13 117.97 L 352.17 114.98 L 357.06 111.56 L 361.91 107.82 L 366.81 103.92 L 371.86 100.01 L 377.16 96.27 L 382.78 92.85 L 388.79 89.89 L 395.24 87.50 L 402.13 85.78 L 409.48 84.76 L 417.25 84.43 L 425.40 84.76 L 433.89 85.67 L 442.63 87.03 L 451.56 88.69 L 460.59 90.50 L 469.68 92.26 L 478.74 93.81 L 487.75 95.00 L 496.66 95.68 L 505.48 95.75 L 514.20 95.15 L 522.85 93.87 L 531.48 91.92 L 540.13 89.37 L 548.87 86.35 L 557.77 82.99 L 566.88 79.45 L 576.28 75.93 L 586.02 72.60 L 596.15 69.63 L 606.72 67.19 L 617.73 65.39 L 629.22 64.31 L 641.19 63.99 L 653.64 64.43 L 666.57 65.58 L 679.98 67.33 L 693.86 69.55 L 708.23 72.08 L 723.12 74.74 L 738.57 77.34 L 754.65 79.70 L 771.46 81.65 L 789.15 83.04 L 807.91 83.79 L 828.02 83.82 L 849.86 83.12 L 874.03 81.73 L 901.50 79.73 L 934.16 77.23 L 976.82 74.40 L 1080.00 71.40 L 1183.24 68.43 L 1226.08 65.67 L 1259.01 63.31 L 1286.82 61.48 L 1311.34 60.32 L 1333.49 59.91 L 1353.82 60.27 L 1372.67 61.40 L 1390.28 63.24 L 1406.83 65.67 L 1422.45 68.57 L 1437.26 71.76 L 1451.36 75.06 L 1464.85 78.29 L 1477.82 81.26 L 1490.34 83.81 L 1502.51 85.80 L 1514.39 87.15 L 1526.04 87.79 L 1537.52 87.71 L 1548.86 86.97 L 1560.09 85.63 L 1571.22 83.83 L 1582.23 81.71 L 1593.12 79.45 L 1603.84 77.24 L 1614.35 75.25 L 1624.61 73.65 L 1634.58 72.58 L 1644.20 72.16 L 1653.44 72.45 L 1662.28 73.49 L 1670.70 75.25 L 1678.70 77.67 L 1686.31 80.64 L 1693.58 84.05 L 1700.54 87.71 L 1707.28 91.47 L 1713.86 95.14 L 1720.37 98.56 L 1726.90 101.58 L 1733.51 104.08 L 1740.26 105.98 L 1747.22 107.23 L 1754.40 107.84 L 1761.82 107.85 L 1769.45 107.33 L 1777.27 106.40 L 1785.21 105.21 L 1793.19 103.92 L 1801.13 102.68 L 1808.93 101.67 L 1816.49 101.02 L 1823.73 100.86 L 1830.56 101.29 L 1836.93 102.36 L 1842.80 104.09 L 1848.15 106.45 L 1853.01 109.39 L 1857.41 112.81 L 1861.43 116.59 L 1865.16 120.58 L 1868.69 124.65 L 1872.16 128.63 L 1875.68 132.38 L 1879.36 135.79 L 1883.30 138.76 L 1887.59 141.22 L 1892.28 143.13 L 1897.40 144.52 L 1902.94 145.42 L 1908.87 145.90 L 1915.10 146.07 L 1921.56 146.04 L 1928.13 145.96 L 1934.67 145.95 L 1941.04 146.15 L 1947.13 146.67 L 1952.80 147.61 L 1957.95 149.05 L 1962.52 151.01 L 1966.46 153.51 L 1969.76 156.52 L 1972.46 159.98 L 1974.62 163.82 L 1976.34 167.94 L 1977.74 172.22 L 1978.96 176.54 L 1980.16 180.80 L 1981.48 184.88 L 1983.07 188.70 L 1985.05 192.19 L 1987.51 195.31 L 1990.52 198.03 L 1994.09 200.39 L 1998.22 202.41 L 2002.84 204.16 L 2007.87 205.72 L 2013.17 207.19 L 2018.61 208.65 L 2024.02 210.21 L 2029.23 211.97 L 2034.09 213.99 L 2038.46 216.35 L 2042.22 219.08 L 2045.29 222.21 L 2047.62 225.72 L 2049.23 229.61 L 2050.15 233.81 L 2050.46 238.28 L 2050.29 242.94 L 2049.78 247.71 L 2049.10 252.53 L 2048.43 257.31 L 2047.94 262.01 L 2047.79 266.56 L 2048.12 270.95 L 2049.02 275.15 L 2050.56 279.17 L 2052.75 283.04 L 2055.58 286.78 L 2058.98 290.45 L 2062.82 294.10 L 2066.97 297.80 L 2071.27 301.60 L 2075.52 305.57 L 2079.55 309.76 L 2083.18 314.20 L 2086.27 318.93 L 2088.68 323.96 L 2090.34 329.30 L 2091.21 334.95 L 2091.28 340.88 L 2090.63 347.09 L 2089.34 353.56 L 2087.55 360.25 L 2085.41 367.17 L 2083.12 374.29 L 2080.86 381.64 L 2078.82 389.23 L 2077.15 397.12 L 2076.01 405.36 L 2075.49 414.05 L 2075.65 423.33 L 2076.51 433.40 L 2078.03 444.53 L 2080.14 457.21 L 2082.71 472.31 L 2085.59 492.08 Z" fill="none" stroke="url(#grad1)" stroke-width="8" opacity="0.86"/>

  <!-- Middle solid line -->
  <path d="M 2068.60 540.00 L 2068.54 596.22 L 2068.36 619.51 L 2068.05 637.36 L 2067.62 652.41 L 2067.08 665.66 L 2066.40 677.62 L 2065.61 688.60 L 2064.69 698.82 L 2063.66 708.39 L 2062.50 717.43 L 2061.21 726.01 L 2059.81 734.19 L 2058.28 742.01 L 2056.62 749.52 L 2054.85 756.75 L 2052.95 763.71 L 2050.92 770.44 L 2048.77 776.95 L 2046.50 783.26 L 2044.10 789.37 L 2041.58 795.32 L 2038.93 801.09 L 2036.16 806.71 L 2033.26 812.18 L 2030.23 817.51 L 2027.07 822.71 L 2023.79 827.77 L 2020.38 832.72 L 2016.84 837.55 L 2013.17 842.26 L 2009.37 846.87 L 2005.44 851.37 L 2001.38 855.76 L 1997.19 860.06 L 1992.86 864.27 L 1988.40 868.38 L 1983.80 872.39 L 1979.07 876.33 L 1974.20 880.17 L 1969.20 883.93 L 1964.06 887.61 L 1958.77 891.20 L 1953.35 894.72 L 1947.78 898.16 L 1942.07 901.52 L 1936.22 904.81 L 1930.21 908.02 L 1924.06 911.16 L 1917.76 914.23 L 1911.31 917.23 L 1904.70 920.15 L 1897.94 923.01 L 1891.02 925.80 L 1883.94 928.53 L 1876.70 931.18 L 1869.29 933.78 L 1861.71 936.30 L 1853.96 938.76 L 1846.03 941.16 L 1837.93 943.49 L 1829.65 945.77 L 1821.18 947.97 L 1812.51 950.12 L 1803.66 952.21 L 1794.60 954.23 L 1785.34 956.19 L 1775.86 958.10 L 1766.17 959.94 L 1756.26 961.72 L 1746.11 963.45 L 1735.72 965.11 L 1725.08 966.72 L 1714.18 968.27 L 1703.01 969.76 L 1691.56 971.19 L 1679.82 972.56 L 1667.76 973.88 L 1655.38 975.14 L 1642.65 976.34 L 1629.56 977.48 L 1616.07 978.57 L 1602.17 979.60 L 1587.83 980.58 L 1573.00 981.50 L 1557.65 982.36 L 1541.73 983.17 L 1525.19 983.92 L 1507.94 984.61 L 1489.92 985.25 L 1471.01 985.83 L 1451.09 986.36 L 1429.99 986.83 L 1407.49 987.24 L 1383.27 987.60 L 1356.91 987.91 L 1327.72 988.16 L 1294.57 988.35 L 1255.21 988.49 L 1203.90 988.57 L 1080.00 988.60 L 956.10 988.57 L 904.79 988.49 L 865.43 988.35 L 832.28 988.16 L 803.09 987.91 L 776.73 987.60 L 752.51 987.24 L 730.01 986.83 L 708.91 986.36 L 688.99 985.83 L 670.08 985.25 L 652.06 984.61 L 634.81 983.92 L 618.27 983.17 L 602.35 982.36 L 587.00 981.50 L 572.17 980.58 L 557.83 979.60 L 543.93 978.57 L 530.44 977.48 L 517.35 976.34 L 504.62 975.14 L 492.24 973.88 L 480.18 972.56 L 468.44 971.19 L 456.99 969.76 L 445.82 968.27 L 434.92 966.72 L 424.28 965.11 L 413.89 963.45 L 403.74 961.72 L 393.83 959.94 L 384.14 958.10 L 374.66 956.19 L 365.40 954.23 L 356.34 952.21 L 347.49 950.12 L 338.82 947.97 L 330.35 945.77 L 322.07 943.49 L 313.97 941.16 L 306.04 938.76 L 298.29 936.30 L 290.71 933.78 L 283.30 931.18 L 276.06 928.53 L 268.98 925.80 L 262.06 923.01 L 255.30 920.15 L 248.69 917.23 L 242.24 914.23 L 235.94 911.16 L 229.79 908.02 L 223.78 904.81 L 217.93 901.52 L 212.22 898.16 L 206.65 894.72 L 201.23 891.20 L 195.94 887.61 L 190.80 883.93 L 185.80 880.17 L 180.93 876.33 L 176.20 872.39 L 171.60 868.38 L 167.14 864.27 L 162.81 860.06 L 158.62 855.76 L 154.56 851.37 L 150.63 846.87 L 146.83 842.26 L 143.16 837.55 L 139.62 832.72 L 136.21 827.77 L 132.93 822.71 L 129.77 817.51 L 126.74 812.18 L 123.84 806.71 L 121.07 801.09 L 118.42 795.32 L 115.90 789.37 L 113.50 783.26 L 111.23 776.95 L 109.08 770.44 L 107.05 763.71 L 105.15 756.75 L 103.38 749.52 L 101.72 742.01 L 100.19 734.19 L 98.79 726.01 L 97.50 717.43 L 96.34 708.39 L 95.31 698.82 L 94.39 688.60 L 93.60 677.62 L 92.92 665.66 L 92.38 652.41 L 91.95 637.36 L 91.64 619.51 L 91.46 596.22 L 91.40 540.00 L 91.46 483.78 L 91.64 460.49 L 91.95 442.64 L 92.38 427.59 L 92.92 414.34 L 93.60 402.38 L 94.39 391.40 L 95.31 381.18 L 96.34 371.61 L 97.50 362.57 L 98.79 353.99 L 100.19 345.81 L 101.72 337.99 L 103.38 330.48 L 105.15 323.25 L 107.05 316.29 L 109.08 309.56 L 111.23 303.05 L 113.50 296.74 L 115.90 290.63 L 118.42 284.68 L 121.07 278.91 L 123.84 273.29 L 126.74 267.82 L 129.77 262.49 L 132.93 257.29 L 136.21 252.23 L 139.62 247.28 L 143.16 242.45 L 146.83 237.74 L 150.63 233.13 L 154.56 228.63 L 158.62 224.24 L 162.81 219.94 L 167.14 215.73 L 171.60 211.62 L 176.20 207.61 L 180.93 203.67 L 185.80 199.83 L 190.80 196.07 L 195.94 192.39 L 201.23 188.80 L 206.65 185.28 L 212.22 181.84 L 217.93 178.48 L 223.78 175.19 L 229.79 171.98 L 235.94 168.84 L 242.24 165.77 L 248.69 162.77 L 255.30 159.85 L 262.06 156.99 L 268.98 154.20 L 276.06 151.47 L 283.30 148.82 L 290.71 146.22 L 298.29 143.70 L 306.04 141.24 L 313.97 138.84 L 322.07 136.51 L 330.35 134.23 L 338.82 132.03 L 347.49 129.88 L 356.34 127.79 L 365.40 125.77 L 374.66 123.81 L 384.14 121.90 L 393.83 120.06 L 403.74 118.28 L 413.89 116.55 L 424.28 114.89 L 434.92 113.28 L 445.82 111.73 L 456.99 110.24 L 468.44 108.81 L 480.18 107.44 L 492.24 106.12 L 504.62 104.86 L 517.35 103.66 L 530.44 102.52 L 543.93 101.43 L 557.83 100.40 L 572.17 99.42 L 587.00 98.50 L 602.35 97.64 L 618.27 96.83 L 634.81 96.08 L 652.06 95.39 L 670.08 94.75 L 688.99 94.17 L 708.91 93.64 L 730.01 93.17 L 752.51 92.76 L 776.73 92.40 L 803.09 92.09 L 832.28 91.84 L 865.43 91.65 L 904.79 91.51 L 956.10 91.43 L 1080.00 91.40 L 1203.90 91.43 L 1255.21 91.51 L 1294.57 91.65 L 1327.72 91.84 L 1356.91 92.09 L 1383.27 92.40 L 1407.49 92.76 L 1429.99 93.17 L 1451.09 93.64 L 1471.01 94.17 L 1489.92 94.75 L 1507.94 95.39 L 1525.19 96.08 L 1541.73 96.83 L 1557.65 97.64 L 1573.00 98.50 L 1587.83 99.42 L 1602.17 100.40 L 1616.07 101.43 L 1629.56 102.52 L 1642.65 103.66 L 1655.38 104.86 L 1667.76 106.12 L 1679.82 107.44 L 1691.56 108.81 L 1703.01 110.24 L 1714.18 111.73 L 1725.08 113.28 L 1735.72 114.89 L 1746.11 116.55 L 1756.26 118.28 L 1766.17 120.06 L 1775.86 121.90 L 1785.34 123.81 L 1794.60 125.77 L 1803.66 127.79 L 1812.51 129.88 L 1821.18 132.03 L 1829.65 134.23 L 1837.93 136.51 L 1846.03 138.84 L 1853.96 141.24 L 1861.71 143.70 L 1869.29 146.22 L 1876.70 148.82 L 1883.94 151.47 L 1891.02 154.20 L 1897.94 156.99 L 1904.70 159.85 L 1911.31 162.77 L 1917.76 165.77 L 1924.06 168.84 L 1930.21 171.98 L 1936.22 175.19 L 1942.07 178.48 L 1947.78 181.84 L 1953.35 185.28 L 1958.77 188.80 L 1964.06 192.39 L 1969.20 196.07 L 1974.20 199.83 L 1979.07 203.67 L 1983.80 207.61 L 1988.40 211.62 L 1992.86 215.73 L 1997.19 219.94 L 2001.38 224.24 L 2005.44 228.63 L 2009.37 233.13 L 2013.17 237.74 L 2016.84 242.45 L 2020.38 247.28 L 2023.79 252.23 L 2027.07 257.29 L 2030.23 262.49 L 2033.26 267.82 L 2036.16 273.29 L 2038.93 278.91 L 2041.58 284.68 L 2044.10 290.63 L 2046.50 296.74 L 2048.77 303.05 L 2050.92 309.56 L 2052.95 316.29 L 2054.85 323.25 L 2056.62 330.48 L 2058.28 337.99 L 2059.81 345.81 L 2061.21 353.99 L 2062.50 362.57 L 2063.66 371.61 L 2064.69 381.18 L 2065.61 391.40 L 2066.40 402.38 L 2067.08 414.34 L 2067.62 427.59 L 2068.05 442.64 L 2068.36 460.49 L 2068.54 483.78 Z" fill="none" stroke="url(#grad2)" stroke-width="3" opacity="0.7"/>

  <!-- Inner dotted border -->
  <circle cx="2038.6" cy="540.0" r="3" fill="#B4A0DC" opacity="0.63"/>
  <circle cx="2038.1" cy="630.9" r="3" fill="#A9EAD2" opacity="0.47"/>
  <circle cx="2036.5" cy="668.4" r="3" fill="#B4A0DC" opacity="0.63"/>
  <circle cx="2033.8" cy="697.1" r="3" fill="#A9EAD2" opacity="0.47"/>
  <circle cx="2030.1" cy="721.2" r="3" fill="#B4A0DC" opacity="0.63"/>
  <circle cx="2025.3" cy="742.3" r="3" fill="#A9EAD2" opacity="0.47"/>
  <circle cx="2019.4" cy="761.1" r="3" fill="#B4A0DC" opacity="0.63"/>
  <circle cx="2012.4" cy="778.2" r="3" fill="#A9EAD2" opacity="0.47"/>
  <circle cx="2004.3" cy="794.0" r="3" fill="#B4A0DC" opacity="0.63"/>
  <circle cx="1995.2" cy="808.5" r="3" fill="#A9EAD2" opacity="0.47"/>
  <circle cx="1984.9" cy="822.0" r="3" fill="#B4A0DC" opacity="0.63"/>
  <circle cx="1973.4" cy="834.6" r="3" fill="#A9EAD2" opacity="0.47"/>
  <circle cx="1960.8" cy="846.4" r="3" fill="#B4A0DC" opacity="0.63"/>
  <circle cx="1947.1" cy="857.4" r="3" fill="#A9EAD2" opacity="0.47"/>
  <circle cx="1932.1" cy="867.7" r="3" fill="#B4A0DC" opacity="0.63"/>
  <circle cx="1915.9" cy="877.3" r="3" fill="#A9EAD2" opacity="0.47"/>
  <circle cx="1898.4" cy="886.3" r="3" fill="#B4A0DC" opacity="0.63"/>
  <circle cx="1879.7" cy="894.7" r="3" fill="#A9EAD2" opacity="0.47"/>
  <circle cx="1859.5" cy="902.5" r="3" fill="#B4A0DC" opacity="0.63"/>
  <circle cx="1838.0" cy="909.8" r="3" fill="#A9EAD2" opacity="0.47"/>
  <circle cx="1814.9" cy="916.5" r="3" fill="#B4A0DC" opacity="0.63"/>
  <circle cx="1790.3" cy="922.7" r="3" fill="#A9EAD2" opacity="0.47"/>
  <circle cx="1763.9" cy="928.4" r="3" fill="#B4A0DC" opacity="0.63"/>
  <circle cx="1735.7" cy="933.5" r="3" fill="#A9EAD2" opacity="0.47"/>
  <circle cx="1705.5" cy="938.2" r="3" fill="#B4A0DC" opacity="0.63"/>
  <circle cx="1673.0" cy="942.4" r="3" fill="#A9EAD2" opacity="0.47"/>
  <circle cx="1637.9" cy="946.0" r="3" fill="#B4A0DC" opacity="0.63"/>
  <circle cx="1599.8" cy="949.2" r="3" fill="#A9EAD2" opacity="0.47"/>
  <circle cx="1558.0" cy="952.0" r="3" fill="#B4A0DC" opacity="0.63"/>
  <circle cx="1511.7" cy="954.2" r="3" fill="#A9EAD2" opacity="0.47"/>
  <circle cx="1459.1" cy="956.0" r="3" fill="#B4A0DC" opacity="0.63"/>
  <circle cx="1397.5" cy="957.3" r="3" fill="#A9EAD2" opacity="0.47"/>
  <circle cx="1320.2" cy="958.2" r="3" fill="#B4A0DC" opacity="0.63"/>
  <circle cx="1200.1" cy="958.6" r="3" fill="#A9EAD2" opacity="0.47"/>
  <circle cx="910.1" cy="958.5" r="3" fill="#B4A0DC" opacity="0.63"/>
  <circle cx="811.5" cy="958.0" r="3" fill="#A9EAD2" opacity="0.47"/>
  <circle cx="740.6" cy="956.9" r="3" fill="#B4A0DC" opacity="0.63"/>
  <circle cx="682.5" cy="955.5" r="3" fill="#A9EAD2" opacity="0.47"/>
  <circle cx="632.3" cy="953.5" r="3" fill="#B4A0DC" opacity="0.63"/>
  <circle cx="587.6" cy="951.1" r="3" fill="#A9EAD2" opacity="0.47"/>
  <circle cx="547.1" cy="948.2" r="3" fill="#B4A0DC" opacity="0.63"/>
  <circle cx="510.1" cy="944.9" r="3" fill="#A9EAD2" opacity="0.47"/>
  <circle cx="475.9" cy="941.0" r="3" fill="#B4A0DC" opacity="0.63"/>
  <circle cx="444.2" cy="936.7" r="3" fill="#A9EAD2" opacity="0.47"/>
  <circle cx="414.7" cy="931.9" r="3" fill="#B4A0DC" opacity="0.63"/>
  <circle cx="387.1" cy="926.5" r="3" fill="#A9EAD2" opacity="0.47"/>
  <circle cx="361.3" cy="920.7" r="3" fill="#B4A0DC" opacity="0.63"/>
  <circle cx="337.2" cy="914.3" r="3" fill="#A9EAD2" opacity="0.47"/>
  <circle cx="314.7" cy="907.4" r="3" fill="#B4A0DC" opacity="0.63"/>
  <circle cx="293.6" cy="900.0" r="3" fill="#A9EAD2" opacity="0.47"/>
  <circle cx="273.9" cy="892.0" r="3" fill="#B4A0DC" opacity="0.63"/>
  <circle cx="255.6" cy="883.4" r="3" fill="#A9EAD2" opacity="0.47"/>
  <circle cx="238.6" cy="874.2" r="3" fill="#B4A0DC" opacity="0.63"/>
  <circle cx="222.8" cy="864.4" r="3" fill="#A9EAD2" opacity="0.47"/>
  <circle cx="208.2" cy="853.8" r="3" fill="#B4A0DC" opacity="0.63"/>
  <circle cx="194.8" cy="842.6" r="3" fill="#A9EAD2" opacity="0.47"/>
  <circle cx="182.6" cy="830.5" r="3" fill="#B4A0DC" opacity="0.63"/>
  <circle cx="171.6" cy="817.6" r="3" fill="#A9EAD2" opacity="0.47"/>
  <circle cx="161.7" cy="803.8" r="3" fill="#B4A0DC" opacity="0.63"/>
  <circle cx="152.9" cy="788.9" r="3" fill="#A9EAD2" opacity="0.47"/>
  <circle cx="145.2" cy="772.7" r="3" fill="#B4A0DC" opacity="0.63"/>
  <circle cx="138.5" cy="755.0" r="3" fill="#A9EAD2" opacity="0.47"/>
  <circle cx="133.0" cy="735.5" r="3" fill="#B4A0DC" opacity="0.63"/>
  <circle cx="128.6" cy="713.6" r="3" fill="#A9EAD2" opacity="0.47"/>
  <circle cx="125.2" cy="688.2" r="3" fill="#B4A0DC" opacity="0.63"/>
  <circle cx="122.9" cy="657.3" r="3" fill="#A9EAD2" opacity="0.47"/>
  <circle cx="121.6" cy="614.2" r="3" fill="#B4A0DC" opacity="0.63"/>
  <circle cx="121.5" cy="487.5" r="3" fill="#A9EAD2" opacity="0.47"/>
  <circle cx="122.3" cy="435.1" r="3" fill="#B4A0DC" opacity="0.63"/>
  <circle cx="124.3" cy="401.3" r="3" fill="#A9EAD2" opacity="0.47"/>
  <circle cx="127.3" cy="374.4" r="3" fill="#B4A0DC" opacity="0.63"/>
  <circle cx="131.4" cy="351.5" r="3" fill="#A9EAD2" opacity="0.47"/>
  <circle cx="136.6" cy="331.2" r="3" fill="#B4A0DC" opacity="0.63"/>
  <circle cx="142.8" cy="313.0" r="3" fill="#A9EAD2" opacity="0.47"/>
  <circle cx="150.2" cy="296.4" r="3" fill="#B4A0DC" opacity="0.63"/>
  <circle cx="158.6" cy="281.0" r="3" fill="#A9EAD2" opacity="0.47"/>
  <circle cx="168.2" cy="266.9" r="3" fill="#B4A0DC" opacity="0.63"/>
  <circle cx="178.8" cy="253.7" r="3" fill="#A9EAD2" opacity="0.47"/>
  <circle cx="190.6" cy="241.3" r="3" fill="#B4A0DC" opacity="0.63"/>
  <circle cx="203.6" cy="229.8" r="3" fill="#A9EAD2" opacity="0.47"/>
  <circle cx="217.8" cy="219.1" r="3" fill="#B4A0DC" opacity="0.63"/>
  <circle cx="233.2" cy="209.0" r="3" fill="#A9EAD2" opacity="0.47"/>
  <circle cx="249.8" cy="199.6" r="3" fill="#B4A0DC" opacity="0.63"/>
  <circle cx="267.7" cy="190.8" r="3" fill="#A9EAD2" opacity="0.47"/>
  <circle cx="286.9" cy="182.6" r="3" fill="#B4A0DC" opacity="0.63"/>
  <circle cx="307.5" cy="175.0" r="3" fill="#A9EAD2" opacity="0.47"/>
  <circle cx="329.5" cy="167.9" r="3" fill="#B4A0DC" opacity="0.63"/>
  <circle cx="353.1" cy="161.4" r="3" fill="#A9EAD2" opacity="0.47"/>
  <circle cx="378.3" cy="155.4" r="3" fill="#B4A0DC" opacity="0.63"/>
  <circle cx="405.3" cy="149.9" r="3" fill="#A9EAD2" opacity="0.47"/>
  <circle cx="434.1" cy="144.9" r="3" fill="#B4A0DC" opacity="0.63"/>
  <circle cx="465.1" cy="140.4" r="3" fill="#A9EAD2" opacity="0.47"/>
  <circle cx="498.4" cy="136.4" r="3" fill="#B4A0DC" opacity="0.63"/>
  <circle cx="534.4" cy="132.8" r="3" fill="#A9EAD2" opacity="0.47"/>
  <circle cx="573.7" cy="129.8" r="3" fill="#B4A0DC" opacity="0.63"/>
  <circle cx="616.8" cy="127.2" r="3" fill="#A9EAD2" opacity="0.47"/>
  <circle cx="665.0" cy="125.1" r="3" fill="#B4A0DC" opacity="0.63"/>
  <circle cx="720.2" cy="123.5" r="3" fill="#A9EAD2" opacity="0.47"/>
  <circle cx="785.9" cy="122.3" r="3" fill="#B4A0DC" opacity="0.63"/>
  <circle cx="871.9" cy="121.6" r="3" fill="#A9EAD2" opacity="0.47"/>
  <circle cx="1080.0" cy="121.4" r="3" fill="#B4A0DC" opacity="0.63"/>
  <circle cx="1288.1" cy="121.6" r="3" fill="#A9EAD2" opacity="0.47"/>
  <circle cx="1374.1" cy="122.3" r="3" fill="#B4A0DC" opacity="0.63"/>
  <circle cx="1439.8" cy="123.5" r="3" fill="#A9EAD2" opacity="0.47"/>
  <circle cx="1495.0" cy="125.1" r="3" fill="#B4A0DC" opacity="0.63"/>
  <circle cx="1543.2" cy="127.2" r="3" fill="#A9EAD2" opacity="0.47"/>
  <circle cx="1586.3" cy="129.8" r="3" fill="#B4A0DC" opacity="0.63"/>
  <circle cx="1625.6" cy="132.8" r="3" fill="#A9EAD2" opacity="0.47"/>
  <circle cx="1661.6" cy="136.4" r="3" fill="#B4A0DC" opacity="0.63"/>
  <circle cx="1694.9" cy="140.4" r="3" fill="#A9EAD2" opacity="0.47"/>
  <circle cx="1725.9" cy="144.9" r="3" fill="#B4A0DC" opacity="0.63"/>
  <circle cx="1754.7" cy="149.9" r="3" fill="#A9EAD2" opacity="0.47"/>
  <circle cx="1781.7" cy="155.4" r="3" fill="#B4A0DC" opacity="0.63"/>
  <circle cx="1806.9" cy="161.4" r="3" fill="#A9EAD2" opacity="0.47"/>
  <circle cx="1830.5" cy="167.9" r="3" fill="#B4A0DC" opacity="0.63"/>
  <circle cx="1852.5" cy="175.0" r="3" fill="#A9EAD2" opacity="0.47"/>
  <circle cx="1873.1" cy="182.6" r="3" fill="#B4A0DC" opacity="0.63"/>
  <circle cx="1892.3" cy="190.8" r="3" fill="#A9EAD2" opacity="0.47"/>
  <circle cx="1910.2" cy="199.6" r="3" fill="#B4A0DC" opacity="0.63"/>
  <circle cx="1926.8" cy="209.0" r="3" fill="#A9EAD2" opacity="0.47"/>
  <circle cx="1942.2" cy="219.1" r="3" fill="#B4A0DC" opacity="0.63"/>
  <circle cx="1956.4" cy="229.8" r="3" fill="#A9EAD2" opacity="0.47"/>
  <circle cx="1969.4" cy="241.3" r="3" fill="#B4A0DC" opacity="0.63"/>
  <circle cx="1981.2" cy="253.7" r="3" fill="#A9EAD2" opacity="0.47"/>
  <circle cx="1991.8" cy="266.9" r="3" fill="#B4A0DC" opacity="0.63"/>
  <circle cx="2001.4" cy="281.0" r="3" fill="#A9EAD2" opacity="0.47"/>
  <circle cx="2009.8" cy="296.4" r="3" fill="#B4A0DC" opacity="0.63"/>
  <circle cx="2017.2" cy="313.0" r="3" fill="#A9EAD2" opacity="0.47"/>
  <circle cx="2023.4" cy="331.2" r="3" fill="#B4A0DC" opacity="0.63"/>
  <circle cx="2028.6" cy="351.5" r="3" fill="#A9EAD2" opacity="0.47"/>
  <circle cx="2032.7" cy="374.4" r="3" fill="#B4A0DC" opacity="0.63"/>
  <circle cx="2035.7" cy="401.3" r="3" fill="#A9EAD2" opacity="0.47"/>
  <circle cx="2037.7" cy="435.1" r="3" fill="#B4A0DC" opacity="0.63"/>
  <circle cx="2038.5" cy="487.5" r="3" fill="#A9EAD2" opacity="0.47"/>

  <!-- Sparkles -->
  <g transform="translate(1080.0,41.4)">
    <polygon points="0,-18 -2.6999999999999997,0 0,18 2.6999999999999997,0" fill="#B4A0DC"/>
    <polygon points="-18,0 0,-2.6999999999999997 18,0 0,2.6999999999999997" fill="#B4A0DC"/>
    <circle r="2.2" fill="#FFFFFF"/>
  </g>
  <g transform="translate(1080.0,1038.6)">
    <polygon points="0,-18 -2.6999999999999997,0 0,18 2.6999999999999997,0" fill="#B4A0DC"/>
    <polygon points="-18,0 0,-2.6999999999999997 18,0 0,2.6999999999999997" fill="#B4A0DC"/>
    <circle r="2.2" fill="#FFFFFF"/>
  </g>
  <g transform="translate(46.4,540.0)">
    <polygon points="0,-16 -2.4,0 0,16 2.4,0" fill="#B4A0DC"/>
    <polygon points="-16,0 0,-2.4 16,0 0,2.4" fill="#B4A0DC"/>
    <circle r="1.9" fill="#FFFFFF"/>
  </g>
  <g transform="translate(2113.6,540.0)">
    <polygon points="0,-16 -2.4,0 0,16 2.4,0" fill="#B4A0DC"/>
    <polygon points="-16,0 0,-2.4 16,0 0,2.4" fill="#B4A0DC"/>
    <circle r="1.9" fill="#FFFFFF"/>
  </g>
  <g transform="translate(364.6,213.4)">
    <polygon points="0,-14 -2.1,0 0,14 2.1,0" fill="#B4A0DC"/>
    <polygon points="-14,0 0,-2.1 14,0 0,2.1" fill="#B4A0DC"/>
    <circle r="1.7" fill="#FFFFFF"/>
  </g>
  <g transform="translate(1795.4,213.4)">
    <polygon points="0,-14 -2.1,0 0,14 2.1,0" fill="#B4A0DC"/>
    <polygon points="-14,0 0,-2.1 14,0 0,2.1" fill="#B4A0DC"/>
    <circle r="1.7" fill="#FFFFFF"/>
  </g>
  <g transform="translate(364.6,866.6)">
    <polygon points="0,-14 -2.1,0 0,14 2.1,0" fill="#B4A0DC"/>
    <polygon points="-14,0 0,-2.1 14,0 0,2.1" fill="#B4A0DC"/>
    <circle r="1.7" fill="#FFFFFF"/>
  </g>
  <g transform="translate(1795.4,866.6)">
    <polygon points="0,-14 -2.1,0 0,14 2.1,0" fill="#B4A0DC"/>
    <polygon points="-14,0 0,-2.1 14,0 0,2.1" fill="#B4A0DC"/>
    <circle r="1.7" fill="#FFFFFF"/>
  </g>

  <!-- Small clouds -->
  <g transform="translate(583.2,140.8)" opacity="0.5">
    <ellipse cx="0" cy="0" rx="22" ry="14" fill="#B4A0DC"/>
    <ellipse cx="-17" cy="4" rx="17" ry="12" fill="#B4A0DC"/>
    <ellipse cx="17" cy="4" rx="17" ry="12" fill="#B4A0DC"/>
    <ellipse cx="-10" cy="-6" rx="14" ry="12" fill="#B4A0DC"/>
    <ellipse cx="10" cy="-6" rx="14" ry="12" fill="#B4A0DC"/>
  </g>
  <g transform="translate(1576.8,140.8)" opacity="0.5">
    <ellipse cx="0" cy="0" rx="18" ry="12" fill="#B4A0DC"/>
    <ellipse cx="-14" cy="3" rx="14" ry="10" fill="#B4A0DC"/>
    <ellipse cx="14" cy="3" rx="14" ry="10" fill="#B4A0DC"/>
    <ellipse cx="-8" cy="-5" rx="12" ry="10" fill="#B4A0DC"/>
    <ellipse cx="8" cy="-5" rx="12" ry="10" fill="#B4A0DC"/>
  </g>
  <g transform="translate(235.4,403.9)" opacity="0.5">
    <ellipse cx="0" cy="0" rx="16" ry="11" fill="#B4A0DC"/>
    <ellipse cx="-13" cy="3" rx="13" ry="9" fill="#B4A0DC"/>
    <ellipse cx="13" cy="3" rx="13" ry="9" fill="#B4A0DC"/>
    <ellipse cx="-7" cy="-4" rx="11" ry="9" fill="#B4A0DC"/>
    <ellipse cx="7" cy="-4" rx="11" ry="9" fill="#B4A0DC"/>
  </g>
  <g transform="translate(1924.6,403.9)" opacity="0.5">
    <ellipse cx="0" cy="0" rx="16" ry="11" fill="#B4A0DC"/>
    <ellipse cx="-13" cy="3" rx="13" ry="9" fill="#B4A0DC"/>
    <ellipse cx="13" cy="3" rx="13" ry="9" fill="#B4A0DC"/>
    <ellipse cx="-7" cy="-4" rx="11" ry="9" fill="#B4A0DC"/>
    <ellipse cx="7" cy="-4" rx="11" ry="9" fill="#B4A0DC"/>
  </g>
  <g transform="translate(235.4,676.1)" opacity="0.5">
    <ellipse cx="0" cy="0" rx="18" ry="12" fill="#B4A0DC"/>
    <ellipse cx="-14" cy="3" rx="14" ry="10" fill="#B4A0DC"/>
    <ellipse cx="14" cy="3" rx="14" ry="10" fill="#B4A0DC"/>
    <ellipse cx="-8" cy="-5" rx="12" ry="10" fill="#B4A0DC"/>
    <ellipse cx="8" cy="-5" rx="12" ry="10" fill="#B4A0DC"/>
  </g>
  <g transform="translate(1924.6,676.1)" opacity="0.5">
    <ellipse cx="0" cy="0" rx="18" ry="12" fill="#B4A0DC"/>
    <ellipse cx="-14" cy="3" rx="14" ry="10" fill="#B4A0DC"/>
    <ellipse cx="14" cy="3" rx="14" ry="10" fill="#B4A0DC"/>
    <ellipse cx="-8" cy="-5" rx="12" ry="10" fill="#B4A0DC"/>
    <ellipse cx="8" cy="-5" rx="12" ry="10" fill="#B4A0DC"/>
  </g>
  <g transform="translate(682.6,948.2)" opacity="0.5">
    <ellipse cx="0" cy="0" rx="20" ry="13" fill="#B4A0DC"/>
    <ellipse cx="-15" cy="3" rx="15" ry="11" fill="#B4A0DC"/>
    <ellipse cx="15" cy="3" rx="15" ry="11" fill="#B4A0DC"/>
    <ellipse cx="-9" cy="-6" rx="13" ry="11" fill="#B4A0DC"/>
    <ellipse cx="9" cy="-6" rx="13" ry="11" fill="#B4A0DC"/>
  </g>
  <g transform="translate(1477.4,948.2)" opacity="0.5">
    <ellipse cx="0" cy="0" rx="14" ry="10" fill="#B4A0DC"/>
    <ellipse cx="-11" cy="2" rx="11" ry="8" fill="#B4A0DC"/>
    <ellipse cx="11" cy="2" rx="11" ry="8" fill="#B4A0DC"/>
    <ellipse cx="-6" cy="-4" rx="10" ry="8" fill="#B4A0DC"/>
    <ellipse cx="6" cy="-4" rx="10" ry="8" fill="#B4A0DC"/>
  </g>

  <!-- Plus signs -->
  <g transform="translate(781.9,109.1)" opacity="0.55">
    <line x1="-5" y1="0" x2="5" y2="0" stroke="#B4A0DC" stroke-width="2"/>
    <line x1="0" y1="-5" x2="0" y2="5" stroke="#B4A0DC" stroke-width="2"/>
  </g>
  <g transform="translate(1378.1,109.1)" opacity="0.55">
    <line x1="-5" y1="0" x2="5" y2="0" stroke="#B4A0DC" stroke-width="2"/>
    <line x1="0" y1="-5" x2="0" y2="5" stroke="#B4A0DC" stroke-width="2"/>
  </g>
  <g transform="translate(165.9,472.0)" opacity="0.55">
    <line x1="-5" y1="0" x2="5" y2="0" stroke="#B4A0DC" stroke-width="2"/>
    <line x1="0" y1="-5" x2="0" y2="5" stroke="#B4A0DC" stroke-width="2"/>
  </g>
  <g transform="translate(1994.1,472.0)" opacity="0.55">
    <line x1="-5" y1="0" x2="5" y2="0" stroke="#B4A0DC" stroke-width="2"/>
    <line x1="0" y1="-5" x2="0" y2="5" stroke="#B4A0DC" stroke-width="2"/>
  </g>
  <g transform="translate(165.9,608.0)" opacity="0.55">
    <line x1="-5" y1="0" x2="5" y2="0" stroke="#B4A0DC" stroke-width="2"/>
    <line x1="0" y1="-5" x2="0" y2="5" stroke="#B4A0DC" stroke-width="2"/>
  </g>
  <g transform="translate(1994.1,608.0)" opacity="0.55">
    <line x1="-5" y1="0" x2="5" y2="0" stroke="#B4A0DC" stroke-width="2"/>
    <line x1="0" y1="-5" x2="0" y2="5" stroke="#B4A0DC" stroke-width="2"/>
  </g>
  <g transform="translate(831.6,970.9)" opacity="0.55">
    <line x1="-5" y1="0" x2="5" y2="0" stroke="#B4A0DC" stroke-width="2"/>
    <line x1="0" y1="-5" x2="0" y2="5" stroke="#B4A0DC" stroke-width="2"/>
  </g>
  <g transform="translate(1328.4,970.9)" opacity="0.55">
    <line x1="-5" y1="0" x2="5" y2="0" stroke="#B4A0DC" stroke-width="2"/>
    <line x1="0" y1="-5" x2="0" y2="5" stroke="#B4A0DC" stroke-width="2"/>
  </g>

  <!-- Particles -->
  <circle cx="409.7" cy="172.8" r="2" fill="#FFFFFF" opacity="0.40"/>
  <circle cx="1757.1" cy="911.5" r="3" fill="#FFFFFF" opacity="0.66"/>
  <circle cx="2025.2" cy="802.3" r="1" fill="#FFFFFF" opacity="0.34"/>
  <circle cx="1203.2" cy="1054.2" r="3" fill="#FFFFFF" opacity="0.38"/>
  <circle cx="418.4" cy="124.9" r="1" fill="#FFFFFF" opacity="0.48"/>
  <circle cx="873.3" cy="1067.0" r="1" fill="#FFFFFF" opacity="0.58"/>
  <circle cx="507.1" cy="950.7" r="2" fill="#FFFFFF" opacity="0.34"/>
  <circle cx="280.8" cy="882.9" r="2" fill="#FFFFFF" opacity="0.54"/>
  <circle cx="1484.7" cy="47.6" r="3" fill="#FFFFFF" opacity="0.35"/>
  <circle cx="2011.8" cy="314.1" r="2" fill="#FFFFFF" opacity="0.63"/>
  <circle cx="218.4" cy="177.5" r="3" fill="#FFFFFF" opacity="0.38"/>
  <circle cx="2114.5" cy="760.6" r="2" fill="#FFFFFF" opacity="0.69"/>
  <circle cx="1800.4" cy="117.7" r="2" fill="#FFFFFF" opacity="0.41"/>
  <circle cx="357.7" cy="162.7" r="2" fill="#FFFFFF" opacity="0.44"/>
  <circle cx="528.1" cy="80.5" r="3" fill="#FFFFFF" opacity="0.56"/>
  <circle cx="252.8" cy="231.0" r="3" fill="#FFFFFF" opacity="0.40"/>
  <circle cx="26.8" cy="656.2" r="3" fill="#FFFFFF" opacity="0.58"/>
  <circle cx="1287.1" cy="1029.3" r="1" fill="#FFFFFF" opacity="0.39"/>
  <circle cx="2148.2" cy="639.7" r="2" fill="#FFFFFF" opacity="0.33"/>
  <circle cx="2044.0" cy="272.7" r="3" fill="#FFFFFF" opacity="0.43"/>
  <circle cx="463.0" cy="123.0" r="3" fill="#FFFFFF" opacity="0.48"/>
  <circle cx="979.2" cy="1030.9" r="3" fill="#FFFFFF" opacity="0.52"/>
  <circle cx="1059.2" cy="34.7" r="3" fill="#FFFFFF" opacity="0.46"/>
  <circle cx="1308.3" cy="1074.1" r="3" fill="#FFFFFF" opacity="0.50"/>
  <circle cx="1122.6" cy="5.5" r="1" fill="#FFFFFF" opacity="0.55"/>
  <circle cx="1369.1" cy="52.5" r="1" fill="#FFFFFF" opacity="0.45"/>
  <circle cx="162.9" cy="252.0" r="2" fill="#FFFFFF" opacity="0.69"/>
  <circle cx="1750.0" cy="173.9" r="3" fill="#FFFFFF" opacity="0.35"/>
  <circle cx="1945.5" cy="190.7" r="3" fill="#FFFFFF" opacity="0.44"/>
  <circle cx="792.0" cy="1009.0" r="1" fill="#FFFFFF" opacity="0.68"/>

</svg>